<svg xmlns="http://www.w3.org/2000/svg" xmlns:xlink="http://www.w3.org/1999/xlink" width="70" zoomAndPan="magnify" viewBox="0 0 52.5 30.000001" height="40" preserveAspectRatio="xMidYMid meet" version="1.0"><defs><g/><clipPath id="1e452a71ce"><path d="M 2 10 L 10 10 L 10 20 L 2 20 Z M 2 10 " clip-rule="nonzero"/></clipPath><clipPath id="bb1c057deb"><path d="M 6.828125 6.453125 L 13.753906 10.417969 L 7.625 21.125 L 0.695312 17.160156 Z M 6.828125 6.453125 " clip-rule="nonzero"/></clipPath><clipPath id="6757ff146d"><path d="M 6.828125 6.453125 L 13.753906 10.417969 L 7.625 21.125 L 0.695312 17.160156 Z M 6.828125 6.453125 " clip-rule="nonzero"/></clipPath><clipPath id="c64b333d0a"><path d="M 2 9 L 10 9 L 10 20 L 2 20 Z M 2 9 " clip-rule="nonzero"/></clipPath><clipPath id="2f7697356d"><path d="M 6.828125 6.453125 L 13.753906 10.417969 L 7.625 21.125 L 0.695312 17.160156 Z M 6.828125 6.453125 " clip-rule="nonzero"/></clipPath><clipPath id="60ee20caa4"><path d="M 6.828125 6.453125 L 13.753906 10.417969 L 7.625 21.125 L 0.695312 17.160156 Z M 6.828125 6.453125 " clip-rule="nonzero"/></clipPath><clipPath id="bff852156c"><path d="M 5.609375 8.8125 L 11.992188 12.46875 L 7.167969 20.890625 L 0.785156 17.238281 Z M 5.609375 8.8125 " clip-rule="nonzero"/></clipPath><clipPath id="6e2b954795"><path d="M 5.609375 8.8125 L 11.964844 12.453125 L 7.171875 20.816406 L 0.820312 17.179688 Z M 5.609375 8.8125 " clip-rule="nonzero"/></clipPath><clipPath id="3a6e86976d"><path d="M 3 14 L 9 14 L 9 19 L 3 19 Z M 3 14 " clip-rule="nonzero"/></clipPath><clipPath id="13723740ae"><path d="M 6.828125 6.453125 L 13.753906 10.417969 L 7.625 21.125 L 0.695312 17.160156 Z M 6.828125 6.453125 " clip-rule="nonzero"/></clipPath><clipPath id="a53fc1375b"><path d="M 6.828125 6.453125 L 13.753906 10.417969 L 7.625 21.125 L 0.695312 17.160156 Z M 6.828125 6.453125 " clip-rule="nonzero"/></clipPath><clipPath id="0317efa23c"><path d="M 4 13 L 6 13 L 6 15 L 4 15 Z M 4 13 " clip-rule="nonzero"/></clipPath><clipPath id="bf08d47a17"><path d="M 6.828125 6.453125 L 13.753906 10.417969 L 7.625 21.125 L 0.695312 17.160156 Z M 6.828125 6.453125 " clip-rule="nonzero"/></clipPath><clipPath id="e5f1360f1f"><path d="M 6.828125 6.453125 L 13.753906 10.417969 L 7.625 21.125 L 0.695312 17.160156 Z M 6.828125 6.453125 " clip-rule="nonzero"/></clipPath><clipPath id="bcfb6a7a27"><path d="M 6 11 L 8 11 L 8 13 L 6 13 Z M 6 11 " clip-rule="nonzero"/></clipPath><clipPath id="43b11cda5c"><path d="M 6.828125 6.453125 L 13.753906 10.417969 L 7.625 21.125 L 0.695312 17.160156 Z M 6.828125 6.453125 " clip-rule="nonzero"/></clipPath><clipPath id="021f0a60ff"><path d="M 6.828125 6.453125 L 13.753906 10.417969 L 7.625 21.125 L 0.695312 17.160156 Z M 6.828125 6.453125 " clip-rule="nonzero"/></clipPath><clipPath id="e7f00ac847"><path d="M 8 7 L 9 7 L 9 9 L 8 9 Z M 8 7 " clip-rule="nonzero"/></clipPath><clipPath id="7b1a8568bb"><path d="M 6.828125 6.453125 L 13.753906 10.417969 L 7.625 21.125 L 0.695312 17.160156 Z M 6.828125 6.453125 " clip-rule="nonzero"/></clipPath><clipPath id="c0fa3d2712"><path d="M 6.828125 6.453125 L 13.753906 10.417969 L 7.625 21.125 L 0.695312 17.160156 Z M 6.828125 6.453125 " clip-rule="nonzero"/></clipPath><clipPath id="977dd98b8e"><path d="M 5 7 L 8 7 L 8 10 L 5 10 Z M 5 7 " clip-rule="nonzero"/></clipPath><clipPath id="f20d716740"><path d="M 6.828125 6.453125 L 13.753906 10.417969 L 7.625 21.125 L 0.695312 17.160156 Z M 6.828125 6.453125 " clip-rule="nonzero"/></clipPath><clipPath id="f61c6c66ae"><path d="M 6.828125 6.453125 L 13.753906 10.417969 L 7.625 21.125 L 0.695312 17.160156 Z M 6.828125 6.453125 " clip-rule="nonzero"/></clipPath><clipPath id="b4afe1511f"><path d="M 5 15 L 8 15 L 8 17 L 5 17 Z M 5 15 " clip-rule="nonzero"/></clipPath><clipPath id="0973c673bd"><path d="M 6.828125 6.453125 L 13.753906 10.417969 L 7.625 21.125 L 0.695312 17.160156 Z M 6.828125 6.453125 " clip-rule="nonzero"/></clipPath><clipPath id="e0faf080aa"><path d="M 6.828125 6.453125 L 13.753906 10.417969 L 7.625 21.125 L 0.695312 17.160156 Z M 6.828125 6.453125 " clip-rule="nonzero"/></clipPath></defs><g clip-path="url(#1e452a71ce)"><g clip-path="url(#bb1c057deb)"><g clip-path="url(#6757ff146d)"><path fill="#ffffff" d="M 5.507812 12.339844 L 6.121094 10.039062 L 8.429688 10.652344 L 7.816406 12.957031 C 8.988281 13.777344 9.59375 15.261719 9.203125 16.726562 C 8.703125 18.597656 6.78125 19.707031 4.910156 19.210938 C 3.039062 18.710938 1.929688 16.789062 2.425781 14.917969 C 2.820312 13.453125 4.082031 12.46875 5.507812 12.339844 " fill-opacity="1" fill-rule="nonzero"/></g></g></g><g clip-path="url(#c64b333d0a)"><g clip-path="url(#2f7697356d)"><g clip-path="url(#60ee20caa4)"><g clip-path="url(#bff852156c)"><g clip-path="url(#6e2b954795)"><path stroke-linecap="round" transform="matrix(0.0065808, 0.00376839, 0.00376839, -0.0065808, 0.818889, 17.179663)" fill="none" stroke-linejoin="round" d="M 219.42414 861.094889 L 138.837535 1164.568563 L 443.20522 1245.667108 L 524.047796 941.746429 C 711.903256 924.666322 878.457841 794.47956 929.746129 601.255406 C 995.139168 354.375494 847.907937 101.488505 601.283996 35.648461 C 354.404083 -29.744577 101.517095 117.486653 35.677051 364.110595 C -15.164232 557.59072 64.714089 752.914549 219.42414 861.094889 Z M 219.42414 861.094889 " stroke="#3d3b38" stroke-width="40.779999" stroke-opacity="1" stroke-miterlimit="10"/></g></g></g></g></g><g clip-path="url(#3a6e86976d)"><g clip-path="url(#13723740ae)"><g clip-path="url(#a53fc1375b)"><path fill="#17b1a4" d="M 3.101562 14.992188 C 2.699219 16.503906 3.597656 18.054688 5.109375 18.460938 C 6.621094 18.863281 8.175781 17.964844 8.578125 16.453125 C 8.578125 16.453125 7.222656 17.28125 5.675781 15.949219 C 4.191406 14.675781 3.101562 14.992188 3.101562 14.992188 " fill-opacity="1" fill-rule="nonzero"/></g></g></g><g clip-path="url(#0317efa23c)"><g clip-path="url(#bf08d47a17)"><g clip-path="url(#e5f1360f1f)"><path fill="#17b1a4" d="M 5.558594 14.40625 C 5.425781 14.644531 5.125 14.726562 4.890625 14.589844 C 4.65625 14.457031 4.574219 14.15625 4.710938 13.921875 C 4.84375 13.6875 5.144531 13.605469 5.378906 13.742188 C 5.613281 13.875 5.695312 14.171875 5.558594 14.40625 " fill-opacity="1" fill-rule="nonzero"/></g></g></g><g clip-path="url(#bcfb6a7a27)"><g clip-path="url(#43b11cda5c)"><g clip-path="url(#021f0a60ff)"><path fill="#17b1a4" d="M 7.523438 12.4375 C 7.390625 12.675781 7.09375 12.757812 6.855469 12.621094 C 6.621094 12.488281 6.539062 12.1875 6.675781 11.953125 C 6.808594 11.71875 7.109375 11.636719 7.34375 11.773438 C 7.578125 11.90625 7.660156 12.203125 7.523438 12.4375 " fill-opacity="1" fill-rule="nonzero"/></g></g></g><g clip-path="url(#e7f00ac847)"><g clip-path="url(#7b1a8568bb)"><g clip-path="url(#c0fa3d2712)"><path fill="#a6e1d4" d="M 8.617188 7.855469 C 8.527344 8.011719 8.328125 8.066406 8.171875 7.976562 C 8.011719 7.886719 7.960938 7.6875 8.050781 7.53125 C 8.140625 7.371094 8.339844 7.316406 8.496094 7.40625 C 8.652344 7.5 8.707031 7.699219 8.617188 7.855469 " fill-opacity="1" fill-rule="nonzero"/></g></g></g><g clip-path="url(#977dd98b8e)"><g clip-path="url(#f20d716740)"><g clip-path="url(#f61c6c66ae)"><path fill="#a6e1d4" d="M 7.570312 9.140625 C 7.328125 9.5625 6.792969 9.707031 6.375 9.464844 C 5.953125 9.222656 5.808594 8.6875 6.046875 8.269531 C 6.289062 7.847656 6.824219 7.703125 7.246094 7.945312 C 7.664062 8.183594 7.8125 8.71875 7.570312 9.140625 " fill-opacity="1" fill-rule="nonzero"/></g></g></g><g clip-path="url(#b4afe1511f)"><g clip-path="url(#0973c673bd)"><g clip-path="url(#e0faf080aa)"><path fill="#17b1a4" d="M 7.273438 16.421875 C 7.085938 16.75 6.667969 16.867188 6.339844 16.675781 C 6.011719 16.488281 5.898438 16.070312 6.085938 15.742188 C 6.273438 15.414062 6.691406 15.300781 7.019531 15.488281 C 7.347656 15.675781 7.464844 16.09375 7.273438 16.421875 " fill-opacity="1" fill-rule="nonzero"/></g></g></g><g fill="#1e1e1e" fill-opacity="1"><g transform="translate(11.439387, 17.890454)"><g><path d="M 3.90625 -4.136719 L 3.789062 -3.746094 C 3.429688 -4.058594 2.964844 -4.25 2.425781 -4.25 C 1.1875 -4.25 0.261719 -3.316406 0.261719 -2.066406 C 0.261719 -0.820312 1.1875 0.121094 2.425781 0.121094 C 2.957031 0.121094 3.414062 -0.0625 3.769531 -0.375 L 3.867188 0 L 4.738281 0 L 4.738281 -4.136719 Z M 2.519531 -0.933594 C 1.867188 -0.933594 1.394531 -1.425781 1.394531 -2.066406 C 1.394531 -2.71875 1.867188 -3.199219 2.519531 -3.199219 C 3.171875 -3.199219 3.644531 -2.71875 3.644531 -2.066406 C 3.644531 -1.417969 3.171875 -0.933594 2.519531 -0.933594 Z M 2.519531 -0.933594 "/></g></g></g><g fill="#1e1e1e" fill-opacity="1"><g transform="translate(16.72192, 17.890454)"><g><path d="M 2.457031 0.121094 C 3.539062 0.121094 4.386719 -0.582031 4.578125 -1.625 L 3.453125 -1.625 C 3.261719 -1.179688 2.910156 -0.933594 2.457031 -0.933594 C 1.859375 -0.933594 1.394531 -1.433594 1.394531 -2.066406 C 1.394531 -2.710938 1.851562 -3.199219 2.457031 -3.199219 C 2.902344 -3.199219 3.277344 -2.957031 3.453125 -2.550781 L 4.5625 -2.550781 C 4.363281 -3.570312 3.539062 -4.25 2.464844 -4.25 C 1.210938 -4.25 0.261719 -3.316406 0.261719 -2.074219 C 0.261719 -0.835938 1.210938 0.121094 2.457031 0.121094 Z M 2.457031 0.121094 "/></g></g></g><g fill="#1e1e1e" fill-opacity="1"><g transform="translate(21.506822, 17.890454)"><g><path d="M 3.90625 -4.136719 L 3.789062 -3.746094 C 3.429688 -4.058594 2.964844 -4.25 2.425781 -4.25 C 1.1875 -4.25 0.261719 -3.316406 0.261719 -2.066406 C 0.261719 -0.820312 1.1875 0.121094 2.425781 0.121094 C 2.957031 0.121094 3.414062 -0.0625 3.769531 -0.375 L 3.867188 0 L 4.738281 0 L 4.738281 -4.136719 Z M 2.519531 -0.933594 C 1.867188 -0.933594 1.394531 -1.425781 1.394531 -2.066406 C 1.394531 -2.71875 1.867188 -3.199219 2.519531 -3.199219 C 3.171875 -3.199219 3.644531 -2.71875 3.644531 -2.066406 C 3.644531 -1.417969 3.171875 -0.933594 2.519531 -0.933594 Z M 2.519531 -0.933594 "/></g></g></g><g fill="#1e1e1e" fill-opacity="1"><g transform="translate(26.789355, 17.890454)"><g><path d="M 2.457031 0.121094 C 3.539062 0.121094 4.386719 -0.582031 4.578125 -1.625 L 3.453125 -1.625 C 3.261719 -1.179688 2.910156 -0.933594 2.457031 -0.933594 C 1.859375 -0.933594 1.394531 -1.433594 1.394531 -2.066406 C 1.394531 -2.710938 1.851562 -3.199219 2.457031 -3.199219 C 2.902344 -3.199219 3.277344 -2.957031 3.453125 -2.550781 L 4.5625 -2.550781 C 4.363281 -3.570312 3.539062 -4.25 2.464844 -4.25 C 1.210938 -4.25 0.261719 -3.316406 0.261719 -2.074219 C 0.261719 -0.835938 1.210938 0.121094 2.457031 0.121094 Z M 2.457031 0.121094 "/></g></g></g><g fill="#1e1e1e" fill-opacity="1"><g transform="translate(31.574257, 17.890454)"><g><path d="M 2.902344 -4.226562 C 2.40625 -4.226562 1.96875 -4.042969 1.652344 -3.746094 L 1.652344 -5.621094 L 0.535156 -5.621094 L 0.535156 0 L 1.652344 0 L 1.652344 -2.167969 C 1.652344 -2.839844 2.023438 -3.246094 2.582031 -3.246094 C 3.078125 -3.246094 3.300781 -2.941406 3.300781 -2.320312 L 3.300781 0 L 4.417969 0 L 4.417969 -2.511719 C 4.417969 -3.5625 3.835938 -4.226562 2.902344 -4.226562 Z M 2.902344 -4.226562 "/></g></g></g><g fill="#1e1e1e" fill-opacity="1"><g transform="translate(36.481654, 17.890454)"><g><path d="M 4.546875 -2.074219 C 4.546875 -3.269531 3.675781 -4.25 2.40625 -4.25 C 1.179688 -4.25 0.261719 -3.308594 0.261719 -2.066406 C 0.261719 -0.828125 1.1875 0.121094 2.40625 0.121094 C 3.371094 0.121094 4.15625 -0.453125 4.457031 -1.355469 L 3.285156 -1.355469 C 3.117188 -1.058594 2.796875 -0.871094 2.40625 -0.871094 C 1.859375 -0.871094 1.492188 -1.1875 1.394531 -1.753906 L 4.527344 -1.753906 C 4.542969 -1.859375 4.546875 -1.96875 4.546875 -2.074219 Z M 2.40625 -3.292969 C 2.910156 -3.292969 3.269531 -3.015625 3.429688 -2.511719 L 1.425781 -2.511719 C 1.554688 -3 1.90625 -3.292969 2.40625 -3.292969 Z M 2.40625 -3.292969 "/></g></g></g><g fill="#1e1e1e" fill-opacity="1"><g transform="translate(41.289525, 17.890454)"><g><path d="M 5.238281 -4.226562 C 4.710938 -4.226562 4.242188 -3.964844 3.960938 -3.570312 C 3.714844 -3.980469 3.285156 -4.226562 2.757812 -4.226562 C 2.265625 -4.226562 1.816406 -3.988281 1.523438 -3.621094 L 1.316406 -4.136719 L 0.535156 -4.136719 L 0.535156 0 L 1.652344 0 L 1.652344 -2.234375 C 1.652344 -2.878906 1.953125 -3.246094 2.457031 -3.246094 C 2.855469 -3.246094 3.070312 -2.957031 3.070312 -2.40625 L 3.070312 0 L 4.15625 0 L 4.15625 -2.234375 C 4.15625 -2.878906 4.457031 -3.246094 4.953125 -3.246094 C 5.359375 -3.246094 5.574219 -2.957031 5.574219 -2.40625 L 5.574219 0 L 6.691406 0 L 6.691406 -2.589844 C 6.691406 -3.5625 6.09375 -4.226562 5.238281 -4.226562 Z M 5.238281 -4.226562 "/></g></g></g><g fill="#1e1e1e" fill-opacity="1"><g transform="translate(48.470708, 17.890454)"><g><path d="M 0.535156 -4.6875 L 1.644531 -4.6875 L 1.644531 -5.71875 L 0.535156 -5.71875 Z M 0.535156 0 L 1.652344 0 L 1.652344 -4.136719 L 0.535156 -4.136719 Z M 0.535156 0 "/></g></g></g></svg>